<?xml version="1.0" encoding="UTF-8"?>
<svg id="Capa_1" data-name="Capa 1" xmlns="http://www.w3.org/2000/svg" version="1.1" viewBox="0 0 2534.8 1422.4">
  <defs>
    <style>
      .cls-1 {
        fill: #6c172f;
      }

      .cls-1, .cls-2, .cls-3 {
        stroke-width: 0px;
      }

      .cls-2 {
        fill: #000;
      }

      .cls-3 {
        fill: #fff;
      }
    </style>
  </defs>
  <path class="cls-3" d="M2435.3,711.1s79.8,119.8-71,221.2c0,0-2.9,126.7-141.7,153.8,0,0-60.2,111.5-174.9,96.5,0,0-57.1,99.4-186.9,69.3,0,0-63.3,78.4-189.9,42.3,0,0-78,108.2-254-15.2-34.9-24.4-88.1-30.8-83-22.9,9.9,15,14.2,47.8,14.2,54.7,0,55.3-36.2,99.2-78.6,99.2s-78.6-43.8-78.6-99.2,4.3-39.6,14.1-54.7c5.1-7.9-48.1-1.5-82.8,22.9-176.1,123.4-254,15.2-254,15.2-126.6,36.1-189.9-42.3-189.9-42.3-129.7,30.2-187-69.3-187-69.3-114.6,15-174.9-96.5-174.9-96.5-138.7-27.1-141.7-153.8-141.7-153.8-159.6-106.8-72.5-220.6-72.5-220.6,0,0-87.1-114.8,72.5-221.8,0,0,3-126.7,141.7-153.8,0,0,60.3-111.5,174.9-96.5,0,0,57.3-99.4,187-69.3,0,0,63.3-78.4,189.9-42.3,0,0,78-108.2,254,15.2,34.8,24.4,88,30.8,82.8,22.9-9.8-15-14.1-47.8-14.1-54.7,0-55.3,36.2-99.2,78.6-99.2s78.6,43.8,78.6,99.2-4.4,39.6-14.2,54.7c-5.1,7.9,48.1,1.5,83-22.9,176.1-123.4,254-15.2,254-15.2,126.6-36.1,189.9,42.3,189.9,42.3,129.7-30.2,186.9,69.3,186.9,69.3,114.7-15,174.9,96.5,174.9,96.5,138.8,27.1,141.7,153.8,141.7,153.8,150.8,101.4,71,221.1,71,221.1"/>
  <path class="cls-1" d="M2404.9,712.6c1.4,6.2,5.1,19.2,8.8,29.5,15.9,43.7,15.4,78.5-17,120.2-17,21.9-53.2,48.3-54.5,53.7-23.1,94.7-44.9,109.4-133.8,136.4-15,4.5-22.4,58.5-74.3,85.9-33.2,17.5-75.8,16.3-103.4,13.2-19.6,39.9-55.4,66.2-99.4,76.7-15.1,3.4-37.9,1.4-55.4-.7-13.7-1.6-24.2-3.2-25.4-2.1-51.9,43.4-67.6,51.4-108.7,55-15,1.3-35.6-1.8-51.6-5-14.2-2.8-25-5.7-25.3-5.3-18.6,25.9-43.6,32.1-70.1,39-89.2,23.3-147.8-56.7-228.7-77.3-29.6-7.5-47.6-2.4-57.2,2.8-6.3,3.5-9.1,7-9.2,6.7,8.3,15.2,42.1,59,13.2,113.5-9.1,16.9-25.2,26.1-42.6,26.4-17.5-.4-34.3-10-44.1-27.3-29.6-52.7,4.1-100.1,13.6-113.1.7-1.2-17.5-21.8-65.3-9.1-80.7,21.6-139.6,100.6-228.6,77.3-26.7-6.8-46.5-17-70.2-39-.1-.2-11.3,2.5-25.8,5.1-16.1,2.9-36.3,5.8-50.9,5.1-41.2-2-56.9-11.6-108.8-55-1.3-1.1-11.9.6-25.5,2.1-17.5,2.1-40.3,4.2-55.3.7-44-10.4-79.8-36.8-99.4-76.7-27.5,3.2-70.1,4.3-103.3-13.2-51.9-27.4-59.4-81.4-74.4-85.9-88.9-27-110.8-41.8-133.8-136.4-1.3-5.4-37.5-31.8-54.7-53.7-32.3-41.7-32.8-76.5-16.9-120.2,3.7-10.3,7.4-23.3,8.8-29.5h2269.1ZM2404.9,712.6c1.4-6.2,5.1-19.3,8.8-29.6,15.9-43.7,15.4-78.5-17-120.2-17-21.9-53.2-48.3-54.5-53.7-23.1-94.7-44.9-109.4-133.8-136.3-15-4.6-22.4-58.6-74.3-86-33.2-17.5-75.8-16.3-103.4-13.2-19.6-39.9-55.4-66.2-99.4-76.7-15.1-3.5-37.9-1.6-55.4.5-13.7,1.6-24.2,3.2-25.4,2.2-51.9-43.5-67.6-51.4-108.7-55-14.9-1.3-35.2,1.7-51.2,4.9-14.5,2.8-25.4,5.7-25.7,5.3-18.6-25.8-43.6-32-70.1-38.8-89.2-23.3-147.8,56.8-228.7,77.3-29.6,7.4-47.6,2.2-57.2-2.9-6.3-3.4-9.1-7-9.2-6.6,8.3-15,42.1-59,13.2-113.5-9.1-16.8-25.2-25.9-42.6-26.5-17.5.5-34.3,10-44.1,27.3-29.6,52.7,4.1,100.1,13.6,113.1.7,1.2-17.5,21.9-65.3,9.1-80.7-21.5-139.6-100.6-228.6-77.3-26.7,6.8-46.5,17-70.2,38.8-.1,0-11.3-2.5-26.1-5.1-16.1-2.9-36.2-5.8-50.7-5-41.2,2-56.9,11.6-108.8,55-1.3.9-11.9-.7-25.5-2.2-17.5-2.1-40.3-4.1-55.3-.5-44,10.4-79.8,36.8-99.4,76.7-27.5-3.2-70.1-4.3-103.3,13.2-51.9,27.4-59.4,81.4-74.4,86-88.9,26.9-110.8,41.6-133.8,136.3-1.3,5.4-37.5,31.9-54.7,53.7-32.3,41.7-32.8,76.5-16.9,120.2,3.7,10.3,7.4,23.4,8.8,29.6h2269.1"/>
  <path class="cls-3" d="M1269,1216.1c91.3-62.4,151.3,8.6,233,53.2,43.2,23.6,123.7,1.4,153.7-31.6,63.9,17.1,138.2,8.6,185.3-43.2,68.1,17.4,134.1-17.1,176.7-69,67.2,9.5,133.1-38.7,168.3-94.8,67.8-13.6,116-74.6,133.5-137.9,56.6-34,91.9-113.6,60.6-178.8,31.3-65.2-4-144.9-60.6-178.7-17.5-63.5-65.7-124.5-133.5-138-35.1-56.1-101.1-104.3-168.3-94.8-42.7-51.9-108.6-86.4-176.7-69-47.1-51.8-121.4-60.3-185.3-43.2-30-33.1-110.5-55.2-153.7-31.6-81.7,44.6-141.7,115.6-233,53.2-91.4,62.4-151.3-8.6-233-53.2-43.3-23.6-123.8-1.5-153.7,31.6-64-17.1-138.3-8.6-185.4,43.2-68.1-17.4-134.1,17.1-176.7,69-67.2-9.5-133,38.7-168.2,94.8-68,13.6-116.1,74.5-133.7,138-56.5,33.8-91.9,113.5-60.4,178.7-31.5,65.2,4,144.9,60.4,178.8,17.5,63.3,65.7,124.3,133.7,137.9,35.2,56.1,101,104.3,168.2,94.8,42.7,51.9,108.7,86.4,176.7,69,47.1,51.8,121.4,60.3,185.4,43.2,29.9,33,110.3,55.2,153.7,31.6,81.7-44.7,141.6-115.6,233-53.2"/>
  <path class="cls-1" d="M1176.9,771.8c16.6,19.7,49,15.3,72.5,7.7l17.5-8v52.5c-41.8,22.1-103.8,21.7-140.2-10.3-30.8-27.7-35.8-67.7-30.7-107.7,7.3-33.4,35.8-65.3,69.4-72.4,41.9-8.7,83.8,5.6,103.5,43.5,9.8,17.6,11.8,36.7,13.4,56.9l-105.4,37.9h0ZM1017.7,649.7c-20.3-20.6-58.1-18.2-81.4-5.9-35.2,20.5-47,58.8-47.4,97.9,0,38.7,17.4,78.6,54.9,93.6,22.6,8.7,52.2,5.9,71.1-8.3,2.3,11.9.7,25.3-7.5,34-24.5,21.3-63.6,12.2-90,2v57.1c40.8,13.9,99.1,17.9,134.3-9.7,22.2-18.6,31.6-43.8,32.4-72.3l.2-200.7h-64.6l-2,12.3h0ZM252.8,545.3v292.5h71c0,.1,0-115,0-115h71.1v115.4h71.1v-292.7h-72v109.9h-70.1v-110.1h-71.2ZM606.1,652.5c-18.5-19.7-54.1-18.5-76.6-8.7-38.7,19.7-54.5,60.8-52.1,103.5,1.2,35.6,15,71.9,49.4,88.1,26,11,60,9.5,82.5-9.5l1.6,11.5h61.6v-197.2h-64.4l-2,12.2h0ZM634.7,617.4c20.6,0,37.3-16.8,37.3-37.4s-16.7-37.3-37.3-37.3c-20.6,0-37.3,16.7-37.3,37.3h0c0,20.7,16.7,37.4,37.3,37.5h0M545.8,617.4c20.6,0,37.3-16.8,37.3-37.4s-16.7-37.3-37.3-37.3-37.3,16.7-37.3,37.3h0c0,20.7,16.7,37.4,37.3,37.4M812,652.5c-18.5-19.7-54.1-18.5-76.6-8.7-38.7,19.7-54.5,60.8-52.2,103.5,1.2,35.6,15,71.9,49.4,88.1,26.1,11,60.1,9.5,82.6-9.5l1.6,11.5h61.6v-197.2h-64.4l-2,12.2h0ZM1939.7,652.5c-18.6-19.7-54.1-18.5-76.6-8.7-38.7,19.7-54.5,60.8-52.2,103.5,1.2,35.6,15,71.9,49.3,88.1,26.1,11,60.1,9.5,82.5-9.5l1.6,11.5h61.6v-197.2h-64.4l-2,12.2h0ZM2016.8,640.3v56.6h60.2l-65.1,140.7h152.1v-53.3h-54.3l66.4-143.9h-159.2,0Z"/>
  <path class="cls-1" d="M2306.6,648.5v50.8s-23.7-11.8-51.8-8.9c0,0-21.2-.5-21.2,12.3,0,0-2,6.9,19.7,8.9,0,0,34.1.5,54.3,20.7,0,0,15.8,16.3,13.8,40.5,0,0,1.5,36.6-32.1,55.8,0,0-29.1,19.8-74.1,13.8,0,0-40-6.4-43-10.4v-54.8s26.7,13.8,49.4,14.3c0,0,27.7.5,28.7-11.4,0,0,2.5-9.8-25.1-14.8,0,0-37.6-3.7-55-35.3,0,0-16.1-40.2,13.1-70.3,0,0,23.4-24.7,60.5-22.2,0,0,35.2-.5,62.9,10.9M1490,689.4h67.2v64.2h-67.2v-64.2ZM1291.6,838.3v-197.2h58.7l2.5,12.3s19.2-16.3,39.5-17.3c0,0,25.2-4,43,7.4,0,0,27.6,11.9,31.6,51.3v143.7h-63.2v-120.5s-2-20.2-21.7-21.2c-19-1-24,5.9-25.2,21.2v120.2h-65.1,0ZM1582.3,545.3v292.8h85.9s54.9-2.5,80-20.2c0,0,57.8-25.7,59.3-129.4,0,0,1-91.3-58.7-124.4,0,0-31.1-19.5-74.6-18.8h-91.8Z"/>
  <path class="cls-3" d="M577.6,700.8s-29.7-1.5-29.7,40c0,0-4,39.5,30.6,39.5,0,0,28.6,1.5,28.6-40,0,0,4.4-38.5-29.6-39.5M988.9,698.3s-29.6-1.5-29.6,40c0,0-3.9,39.5,30.6,39.5,0,0,28.6,1.5,28.6-40,0,0,4.4-38.5-29.6-39.4M1911.2,700.8s-29.6-1.5-29.6,40c0,0-4,39.5,30.6,39.5,0,0,28.6,1.5,28.6-40,0,0,4.5-38.5-29.6-39.5M783.5,700.8s-29.7-1.5-29.7,40c0,0-3.9,39.5,30.6,39.5,0,0,28.7,1.5,28.7-40,0,0,4.5-38.5-29.6-39.5M1657.4,610.9v162.4h19.7s20.8-.5,33.6-15.3c0,0,21.2-18.2,21.2-66.1s-.2-53.8-25.2-69.6c0,0-11.6-11.3-30.1-11.3h-19.2,0ZM1213,705.2c-3.7-11.3-14-19.4-26.1-19.4s-27.6,12.8-27.6,28.6.4,6.1,1.3,8.8l52.4-18h0Z"/>
  <path class="cls-2" d="M2233.2,861.2c18.4,0,34.1,14.5,34.1,34.1s-15.8,34.3-34.1,34.3-34.3-14.5-34.3-34.3,15.7-34.1,34.3-34.1M2233.2,866.7c-15.7,0-27.8,12.3-27.8,28.6s12.1,28.8,27.8,28.8,27.6-12.1,27.6-28.8-12.1-28.6-27.6-28.6M2226,915.2h-6v-39.5h14.9c9.2,0,13.8,3.5,13.8,11.3s-4.4,10.1-10.2,10.9l11.1,17.4h-6.6l-10.4-17.2h-6.8v17.2h0ZM2226,893h7.1c7.3,0,9.6-2.1,9.6-6.4s-1.8-5.9-8.6-5.9h-8.1v12.3Z"/>
</svg>