<?xml version="1.0" encoding="UTF-8"?><svg id="Capa_1" xmlns="http://www.w3.org/2000/svg" viewBox="0 0 2877.37 2877.37"><defs><style>.cls-1{fill:#6c172f;}.cls-1,.cls-2,.cls-3{stroke-width:0px;}.cls-2{fill:#000;}.cls-3{fill:#fff;}</style></defs><path class="cls-3" d="M1368.88,1864.69c16.78.55,24.21-25.62,22.23-45.74-4.04-40.83-21.99-39.93-21.92-40.07-.2.39-17.13,4.91-21.96,40.07-2.73,20.02,3.58,45.96,22.24,45.74M1368.88,599.45c16.78-.53,26.05,25.9,22.23,45.71-2.96,15.2-11.81,41.07-21.92,40.09-9.6.74-19-24.89-21.96-40.09-3.82-19.82,3.58-45.98,22.24-45.71"/><path class="cls-3" d="M2606.54,1438.61s79.81,119.84-70.97,221.23c0,0-2.91,126.68-141.71,153.81,0,0-60.18,111.54-174.88,96.52,0,0-57.15,99.45-186.87,69.3,0,0-63.33,78.36-189.9,42.27,0,0-77.96,108.23-254.03-15.16-34.89-24.37-88.1-30.8-82.96-22.9,9.87,15.01,14.22,47.78,14.22,54.65,0,55.32-36.22,99.16-78.62,99.16s-78.61-43.84-78.61-99.16c0-6.87,4.33-39.64,14.09-54.65,5.13-7.9-48.07-1.47-82.85,22.9-176.05,123.38-254.02,15.16-254.02,15.16-126.56,36.09-189.91-42.27-189.91-42.27-129.7,30.15-186.98-69.3-186.98-69.3-114.57,15.03-174.88-96.52-174.88-96.52-138.68-27.13-141.7-153.81-141.7-153.81-159.62-106.79-72.55-220.57-72.55-220.57,0,0-87.07-114.84,72.55-221.76,0,0,3.01-126.7,141.7-153.82,0,0,60.31-111.54,174.88-96.53,0,0,57.28-99.43,186.98-69.27,0,0,63.35-78.36,189.91-42.27,0,0,77.97-108.24,254.02,15.15,34.78,24.36,87.98,30.81,82.85,22.91-9.75-15.02-14.09-47.81-14.09-54.66,0-55.3,36.2-99.15,78.61-99.15s78.62,43.85,78.62,99.15c0,6.85-4.36,39.64-14.22,54.66-5.14,7.9,48.07,1.45,82.96-22.91,176.08-123.39,254.03-15.15,254.03-15.15,126.57-36.08,189.9,42.27,189.9,42.27,129.71-30.16,186.87,69.27,186.87,69.27,114.7-15.01,174.88,96.53,174.88,96.53,138.8,27.12,141.71,153.82,141.71,153.82,150.78,101.4,70.97,221.1,70.97,221.1"/><path class="cls-1" d="M2576.13,1440.06c1.44,6.19,5.13,19.23,8.82,29.5,15.94,43.73,15.4,78.49-16.98,120.23-17,21.86-53.22,48.33-54.53,53.71-23.06,94.68-44.91,109.45-133.8,136.44-15.02,4.49-22.39,58.46-74.29,85.86-33.18,17.52-75.84,16.34-103.37,13.18-19.62,39.9-55.43,66.24-99.42,76.65-15.14,3.42-37.92,1.45-55.44-.67-13.69-1.56-24.23-3.15-25.4-2.1-51.9,43.45-67.56,51.38-108.65,55.04-15.01,1.32-35.55-1.82-51.62-4.99-14.22-2.76-25-5.68-25.29-5.27-18.56,25.94-43.59,32.13-70.06,38.96-89.15,23.32-147.75-56.74-228.74-77.29-29.63-7.51-47.55-2.37-57.15,2.78-6.33,3.54-9.09,6.96-9.22,6.7,8.29,15.16,42.14,59,13.18,113.53-9.09,16.85-25.16,26.06-42.56,26.45-17.5-.39-34.35-10-44.1-27.26-29.63-52.68,4.08-100.07,13.56-113.1.67-1.2-17.51-21.85-65.31-9.1-80.72,21.61-139.59,100.61-228.6,77.29-26.73-6.83-46.49-16.98-70.2-38.96-.13-.15-11.32,2.51-25.83,5.12-16.06,2.91-36.33,5.8-50.94,5.14-41.22-1.97-56.89-11.59-108.78-55.04-1.33-1.05-11.87.55-25.55,2.1-17.51,2.12-40.29,4.22-55.3.67-43.99-10.41-79.8-36.75-99.42-76.65-27.53,3.17-70.06,4.35-103.26-13.18-51.89-27.41-59.38-81.38-74.4-85.86-88.89-26.99-110.75-41.76-133.79-136.44-1.33-5.38-37.53-31.84-54.66-53.71-32.27-41.74-32.79-76.5-16.85-120.23,3.69-10.27,7.38-23.31,8.82-29.5h2269.13ZM2576.13,1440.06c1.44-6.2,5.13-19.35,8.82-29.62,15.94-43.72,15.4-78.49-16.98-120.23-17-21.86-53.22-48.34-54.53-53.72-23.06-94.68-44.91-109.44-133.8-136.31-15.02-4.6-22.39-58.59-74.29-85.99-33.18-17.51-75.84-16.34-103.37-13.18-19.62-39.89-55.43-66.23-99.42-76.65-15.14-3.54-37.92-1.58-55.44.54-13.69,1.58-24.23,3.16-25.4,2.25-51.9-43.46-67.56-51.37-108.65-55.04-14.88-1.33-35.17,1.71-51.22,4.87-14.48,2.76-25.4,5.67-25.68,5.26-18.56-25.82-43.59-32-70.06-38.84-89.15-23.31-147.75,56.76-228.74,77.28-29.63,7.38-47.55,2.25-57.15-2.89-6.33-3.42-9.09-6.98-9.22-6.57,8.29-15.02,42.14-59,13.18-113.53-9.09-16.85-25.16-25.94-42.56-26.47-17.5.53-34.35,10.01-44.1,27.26-29.63,52.67,4.08,100.08,13.56,113.11.67,1.19-17.51,21.86-65.31,9.08-80.72-21.46-139.59-100.6-228.6-77.28-26.73,6.84-46.49,16.98-70.2,38.84-.13,0-11.32-2.5-26.06-5.12-16.07-2.91-36.22-5.8-50.7-5.01-41.22,1.97-56.89,11.59-108.78,55.04-1.33.92-11.87-.67-25.55-2.25-17.51-2.11-40.29-4.08-55.3-.54-43.99,10.42-79.8,36.76-99.42,76.65-27.53-3.17-70.06-4.34-103.26,13.18-51.89,27.39-59.38,81.39-74.4,85.99-88.89,26.88-110.75,41.63-133.79,136.31-1.33,5.39-37.53,31.86-54.66,53.72-32.27,41.74-32.79,76.52-16.85,120.23,3.69,10.27,7.38,23.42,8.82,29.62h2269.13"/><path class="cls-3" d="M1440.31,1943.64c91.26-62.41,151.3,8.56,232.96,53.21,43.18,23.56,123.65,1.43,153.67-31.59,63.87,17.09,138.16,8.55,185.3-43.22,68.07,17.39,134.06-17.09,176.72-68.98,67.16,9.48,133.15-38.74,168.3-94.83,67.81-13.58,116.03-74.55,133.54-137.88,56.63-33.97,91.92-113.64,60.58-178.82,31.34-65.2-3.96-144.86-60.58-178.71-17.51-63.48-65.73-124.46-133.54-138.01-35.15-56.1-101.14-104.3-168.3-94.81-42.66-51.89-108.65-86.39-176.72-69.02-47.13-51.75-121.43-60.3-185.3-43.18-30.01-33.06-110.49-55.2-153.67-31.62-81.66,44.64-141.7,115.63-232.96,53.21-91.4,62.42-151.31-8.57-232.97-53.21-43.33-23.58-123.78-1.45-153.67,31.62-64-17.13-138.28-8.58-185.42,43.18-68.08-17.37-134.06,17.13-176.73,69.02-67.17-9.49-133.01,38.71-168.17,94.81-67.95,13.56-116.15,74.53-133.68,138.01-56.49,33.85-91.91,113.51-60.44,178.71-31.46,65.18,3.96,144.86,60.44,178.82,17.53,63.33,65.73,124.3,133.68,137.88,35.15,56.09,101,104.31,168.17,94.83,42.67,51.89,108.65,86.37,176.73,68.98,47.13,51.77,121.42,60.31,185.42,43.22,29.9,33.02,110.35,55.15,153.67,31.59,81.66-44.65,141.57-115.62,232.97-53.21"/><path class="cls-1" d="M1348.16,1499.26c16.58,19.73,49.03,15.27,72.54,7.65l17.47-7.98.04,52.48c-41.86,22.1-103.84,21.74-140.23-10.28-30.76-27.65-35.81-67.7-30.69-107.71,7.34-33.45,35.83-65.31,69.42-72.41,41.87-8.7,83.75,5.55,103.51,43.46,9.75,17.57,11.83,36.73,13.4,56.87l-105.45,37.92ZM1188.97,1377.22c-20.26-20.55-58.05-18.18-81.38-5.94-35.15,20.54-46.97,58.83-47.4,97.95,0,38.73,17.39,78.6,54.92,93.62,22.55,8.7,52.18,5.94,71.12-8.3,2.34,11.88.74,25.33-7.53,33.97-24.47,21.32-63.59,12.23-90.02,1.99l.08,57.13c40.67,13.88,99.03,17.9,134.19-9.74,22.15-18.55,31.61-43.85,32.42-72.29l.22-200.66h-64.62l-1.99,12.26ZM424.03,1272.75v292.53l71.02.12v-115.14l71.14.03v115.33h71.09v-292.67h-71.99v109.91h-70.1l-.11-110.09h-71.05ZM777.38,1379.95c-18.53-19.71-54.06-18.54-76.61-8.68-38.69,19.74-54.52,60.84-52.12,103.47,1.18,35.62,14.99,71.92,49.41,88.13,26.03,11.04,59.98,9.51,82.51-9.49l1.59,11.5h61.61v-197.16h-64.4l-1.99,12.24ZM805.95,1344.93c20.59,0,37.3-16.77,37.3-37.4s-16.71-37.35-37.3-37.35c-20.61-.02-37.33,16.67-37.35,37.28,0,.03,0,.05,0,.08-.03,20.62,16.66,37.37,37.28,37.4.02,0,.05,0,.07,0M717.04,1344.93c20.63,0,37.35-16.77,37.35-37.4,0-20.63-16.72-37.35-37.35-37.35-20.62,0-37.33,16.71-37.33,37.33v.03c0,20.64,16.68,37.4,37.33,37.4M983.29,1379.95c-18.52-19.71-54.11-18.54-76.6-8.68-38.73,19.74-54.52,60.84-52.15,103.47,1.19,35.62,15.03,71.92,49.36,88.13,26.08,11.04,60.11,9.51,82.58-9.49l1.61,11.5h61.58v-197.16h-64.39l-1.98,12.24ZM2110.97,1379.95c-18.55-19.71-54.13-18.54-76.62-8.68-38.73,19.74-54.51,60.84-52.15,103.47,1.21,35.62,15,71.92,49.34,88.13,26.09,11.04,60.07,9.51,82.54-9.49l1.62,11.5h61.59v-197.16h-64.36l-1.97,12.24ZM2188.09,1367.77v56.55h60.2l-65.11,140.7h152.05v-53.31h-54.31l66.39-143.94h-159.22Z"/><path class="cls-1" d="M2477.89,1375.95v50.85s-23.7-11.84-51.84-8.9c0,0-21.21-.46-21.21,12.33,0,0-2.01,6.95,19.73,8.9,0,0,34.08.46,54.31,20.72,0,0,15.77,16.32,13.82,40.48,0,0,1.5,36.56-32.05,55.81,0,0-29.15,19.77-74.08,13.83,0,0-39.96-6.43-42.99-10.4v-54.79s26.67,13.82,49.36,14.32c0,0,27.71.52,28.66-11.38,0,0,2.46-9.85-25.14-14.81,0,0-37.55-3.69-55.03-35.3,0,0-16.1-40.19,13.05-70.34,0,0,23.44-24.69,60.48-22.23,0,0,35.25-.48,62.92,10.9M1661.29,1416.92h67.15v64.17h-67.15v-64.17ZM1462.89,1565.77v-197.24h58.66l2.47,12.34s19.25-16.3,39.51-17.28c0,0,25.19-3.98,42.96,7.39,0,0,27.63,11.86,31.57,51.34v143.71h-63.19v-120.48s-1.99-20.22-21.72-21.24c-19.03-.97-23.96,5.91-25.19,21.24v120.21h-65.09ZM1753.62,1272.75v292.78h85.87s54.86-2.47,80-20.23c0,0,57.75-25.66,59.26-129.4,0,0,1.01-91.32-58.74-124.4,0,0-31.08-19.52-74.55-18.76h-91.83Z"/><path class="cls-3" d="M748.92,1428.27s-29.67-1.47-29.67,39.98c0,0-3.98,39.52,30.63,39.52,0,0,28.63,1.48,28.63-40,0,0,4.44-38.51-29.59-39.49M1160.16,1425.82s-29.62-1.5-29.62,39.97c0,0-3.95,39.51,30.61,39.51,0,0,28.63,1.48,28.63-40.02,0,0,4.45-38.49-29.62-39.45M2082.46,1428.27s-29.65-1.47-29.65,39.98c0,0-3.96,39.52,30.61,39.52,0,0,28.63,1.48,28.63-40,0,0,4.5-38.51-29.59-39.49M954.78,1428.27s-29.65-1.47-29.65,39.98c0,0-3.94,39.52,30.62,39.52,0,0,28.66,1.48,28.66-40,0,0,4.46-38.51-29.62-39.49M1828.65,1338.41v162.44h19.73s20.81-.51,33.61-15.33c0,0,21.21-18.23,21.21-66.13,0-1.53-.25-53.83-25.19-69.64,0,0-11.59-11.35-30.12-11.35h-19.25ZM1384.25,1432.65c-3.69-11.29-14-19.42-26.09-19.42-15.26,0-27.56,12.79-27.56,28.61,0,3.09.4,6.05,1.29,8.82l52.37-18.02Z"/><path class="cls-2" d="M2404.44,1588.7c18.39,0,34.14,14.47,34.14,34.13s-15.75,34.31-34.14,34.31-34.29-14.47-34.29-34.31,15.71-34.13,34.29-34.13M2404.44,1594.24c-15.67,0-27.77,12.28-27.77,28.59s12.11,28.8,27.77,28.8,27.57-12.1,27.57-28.8-12.09-28.59-27.57-28.59M2397.24,1642.68h-6v-39.52h14.95c9.25,0,13.83,3.54,13.83,11.27,0,7.1-4.36,10.14-10.2,10.87l11.11,17.37h-6.56l-10.35-17.18h-6.77v17.19h0ZM2397.24,1620.52h7.12c7.29,0,9.63-2.12,9.63-6.45,0-3.78-1.8-5.9-8.64-5.9h-8.11v12.35Z"/></svg>