<?xml version="1.0" encoding="utf-8"?>
<!-- Generator: Adobe Illustrator 28.1.0, SVG Export Plug-In . SVG Version: 6.00 Build 0)  -->
<svg version="1.1" id="Capa_1" xmlns="http://www.w3.org/2000/svg" xmlns:xlink="http://www.w3.org/1999/xlink" x="0px" y="0px"
	 viewBox="0 0 2877.4 2877.4" style="enable-background:new 0 0 2877.4 2877.4;" xml:space="preserve">
<style type="text/css">
	.st0{fill:#FFFFFF;}
	.st1{fill:#6C172F;}
</style>
<path class="st0" d="M2606.5,1438.6c0,0,79.8,119.8-71,221.2c0,0-2.9,126.7-141.7,153.8c0,0-60.2,111.5-174.9,96.5
	c0,0-57.1,99.4-186.9,69.3c0,0-63.3,78.4-189.9,42.3c0,0-78,108.2-254-15.2c-34.9-24.4-88.1-30.8-83-22.9
	c9.9,15,14.2,47.8,14.2,54.7c0,55.3-36.2,99.2-78.6,99.2s-78.6-43.8-78.6-99.2c0-6.9,4.3-39.6,14.1-54.7c5.1-7.9-48.1-1.5-82.8,22.9
	c-176.1,123.4-254,15.2-254,15.2c-126.6,36.1-189.9-42.3-189.9-42.3c-129.7,30.2-187-69.3-187-69.3c-114.6,15-174.9-96.5-174.9-96.5
	C349,1786.5,346,1659.8,346,1659.8c-159.6-106.8-72.5-220.6-72.5-220.6s-87.1-114.8,72.5-221.8c0,0,3-126.7,141.7-153.8
	c0,0,60.3-111.5,174.9-96.5c0,0,57.3-99.4,187-69.3c0,0,63.3-78.4,189.9-42.3c0,0,78-108.2,254,15.2c34.8,24.4,88,30.8,82.8,22.9
	c-9.8-15-14.1-47.8-14.1-54.7c0-55.3,36.2-99.2,78.6-99.2s78.6,43.8,78.6,99.2c0,6.8-4.4,39.6-14.2,54.7c-5.1,7.9,48.1,1.5,83-22.9
	c176.1-123.4,254-15.2,254-15.2c126.6-36.1,189.9,42.3,189.9,42.3c129.7-30.2,186.9,69.3,186.9,69.3c114.7-15,174.9,96.5,174.9,96.5
	c138.8,27.1,141.7,153.8,141.7,153.8C2686.3,1318.9,2606.5,1438.6,2606.5,1438.6"/>
<path class="st1" d="M2576.1,1440.1c1.4,6.2,5.1,19.2,8.8,29.5c15.9,43.7,15.4,78.5-17,120.2c-17,21.9-53.2,48.3-54.5,53.7
	c-23.1,94.7-44.9,109.4-133.8,136.4c-15,4.5-22.4,58.5-74.3,85.9c-33.2,17.5-75.8,16.3-103.4,13.2c-19.6,39.9-55.4,66.2-99.4,76.7
	c-15.1,3.4-37.9,1.4-55.4-0.7c-13.7-1.6-24.2-3.2-25.4-2.1c-51.9,43.4-67.6,51.4-108.7,55c-15,1.3-35.6-1.8-51.6-5
	c-14.2-2.8-25-5.7-25.3-5.3c-18.6,25.9-43.6,32.1-70.1,39c-89.2,23.3-147.8-56.7-228.7-77.3c-29.6-7.5-47.6-2.4-57.2,2.8
	c-6.3,3.5-9.1,7-9.2,6.7c8.3,15.2,42.1,59,13.2,113.5c-9.1,16.9-25.2,26.1-42.6,26.4c-17.5-0.4-34.3-10-44.1-27.3
	c-29.6-52.7,4.1-100.1,13.6-113.1c0.7-1.2-17.5-21.8-65.3-9.1c-80.7,21.6-139.6,100.6-228.6,77.3c-26.7-6.8-46.5-17-70.2-39
	c-0.1-0.2-11.3,2.5-25.8,5.1c-16.1,2.9-36.3,5.8-50.9,5.1c-41.2-2-56.9-11.6-108.8-55c-1.3-1.1-11.9,0.6-25.5,2.1
	c-17.5,2.1-40.3,4.2-55.3,0.7c-44-10.4-79.8-36.8-99.4-76.7c-27.5,3.2-70.1,4.3-103.3-13.2c-51.9-27.4-59.4-81.4-74.4-85.9
	c-88.9-27-110.8-41.8-133.8-136.4c-1.3-5.4-37.5-31.8-54.7-53.7c-32.3-41.7-32.8-76.5-16.9-120.2c3.7-10.3,7.4-23.3,8.8-29.5
	L2576.1,1440.1L2576.1,1440.1z M2576.1,1440.1c1.4-6.2,5.1-19.3,8.8-29.6c15.9-43.7,15.4-78.5-17-120.2
	c-17-21.9-53.2-48.3-54.5-53.7c-23.1-94.7-44.9-109.4-133.8-136.3c-15-4.6-22.4-58.6-74.3-86c-33.2-17.5-75.8-16.3-103.4-13.2
	c-19.6-39.9-55.4-66.2-99.4-76.7c-15.1-3.5-37.9-1.6-55.4,0.5c-13.7,1.6-24.2,3.2-25.4,2.2c-51.9-43.5-67.6-51.4-108.7-55
	c-14.9-1.3-35.2,1.7-51.2,4.9c-14.5,2.8-25.4,5.7-25.7,5.3c-18.6-25.8-43.6-32-70.1-38.8c-89.2-23.3-147.8,56.8-228.7,77.3
	c-29.6,7.4-47.6,2.2-57.2-2.9c-6.3-3.4-9.1-7-9.2-6.6c8.3-15,42.1-59,13.2-113.5c-9.1-16.8-25.2-25.9-42.6-26.5
	c-17.5,0.5-34.3,10-44.1,27.3c-29.6,52.7,4.1,100.1,13.6,113.1c0.7,1.2-17.5,21.9-65.3,9.1c-80.7-21.5-139.6-100.6-228.6-77.3
	c-26.7,6.8-46.5,17-70.2,38.8c-0.1,0-11.3-2.5-26.1-5.1c-16.1-2.9-36.2-5.8-50.7-5c-41.2,2-56.9,11.6-108.8,55
	c-1.3,0.9-11.9-0.7-25.5-2.2c-17.5-2.1-40.3-4.1-55.3-0.5c-44,10.4-79.8,36.8-99.4,76.7c-27.5-3.2-70.1-4.3-103.3,13.2
	c-51.9,27.4-59.4,81.4-74.4,86c-88.9,26.9-110.8,41.6-133.8,136.3c-1.3,5.4-37.5,31.9-54.7,53.7c-32.3,41.7-32.8,76.5-16.9,120.2
	c3.7,10.3,7.4,23.4,8.8,29.6L2576.1,1440.1"/>
<path class="st0" d="M1440.3,1943.6c91.3-62.4,151.3,8.6,233,53.2c43.2,23.6,123.7,1.4,153.7-31.6c63.9,17.1,138.2,8.6,185.3-43.2
	c68.1,17.4,134.1-17.1,176.7-69c67.2,9.5,133.1-38.7,168.3-94.8c67.8-13.6,116-74.6,133.5-137.9c56.6-34,91.9-113.6,60.6-178.8
	c31.3-65.2-4-144.9-60.6-178.7c-17.5-63.5-65.7-124.5-133.5-138c-35.1-56.1-101.1-104.3-168.3-94.8c-42.7-51.9-108.6-86.4-176.7-69
	c-47.1-51.8-121.4-60.3-185.3-43.2c-30-33.1-110.5-55.2-153.7-31.6c-81.7,44.6-141.7,115.6-233,53.2c-91.4,62.4-151.3-8.6-233-53.2
	c-43.3-23.6-123.8-1.5-153.7,31.6c-64-17.1-138.3-8.6-185.4,43.2c-68.1-17.4-134.1,17.1-176.7,69c-67.2-9.5-133,38.7-168.2,94.8
	c-68,13.6-116.1,74.5-133.7,138c-56.5,33.8-91.9,113.5-60.4,178.7c-31.5,65.2,4,144.9,60.4,178.8c17.5,63.3,65.7,124.3,133.7,137.9
	c35.2,56.1,101,104.3,168.2,94.8c42.7,51.9,108.7,86.4,176.7,69c47.1,51.8,121.4,60.3,185.4,43.2c29.9,33,110.3,55.2,153.7,31.6
	C1289,1952.2,1348.9,1881.2,1440.3,1943.6"/>
<path class="st1" d="M1348.2,1499.3c16.6,19.7,49,15.3,72.5,7.7l17.5-8l0,52.5c-41.9,22.1-103.8,21.7-140.2-10.3
	c-30.8-27.7-35.8-67.7-30.7-107.7c7.3-33.4,35.8-65.3,69.4-72.4c41.9-8.7,83.8,5.6,103.5,43.5c9.8,17.6,11.8,36.7,13.4,56.9
	L1348.2,1499.3L1348.2,1499.3z M1189,1377.2c-20.3-20.6-58.1-18.2-81.4-5.9c-35.2,20.5-47,58.8-47.4,97.9
	c0,38.7,17.4,78.6,54.9,93.6c22.6,8.7,52.2,5.9,71.1-8.3c2.3,11.9,0.7,25.3-7.5,34c-24.5,21.3-63.6,12.2-90,2l0.1,57.1
	c40.7,13.9,99,17.9,134.2-9.7c22.2-18.6,31.6-43.8,32.4-72.3l0.2-200.7H1191L1189,1377.2L1189,1377.2z M424,1272.8v292.5l71,0.1
	v-115.1l71.1,0v115.3h71.1v-292.7h-72v109.9h-70.1l-0.1-110.1L424,1272.8L424,1272.8z M777.4,1379.9c-18.5-19.7-54.1-18.5-76.6-8.7
	c-38.7,19.7-54.5,60.8-52.1,103.5c1.2,35.6,15,71.9,49.4,88.1c26,11,60,9.5,82.5-9.5l1.6,11.5h61.6v-197.2h-64.4L777.4,1379.9
	L777.4,1379.9z M806,1344.9c20.6,0,37.3-16.8,37.3-37.4s-16.7-37.3-37.3-37.3c-20.6,0-37.3,16.7-37.3,37.3c0,0,0,0.1,0,0.1
	C768.6,1328.2,785.3,1344.9,806,1344.9C805.9,1344.9,805.9,1344.9,806,1344.9 M717,1344.9c20.6,0,37.3-16.8,37.3-37.4
	s-16.7-37.3-37.3-37.3c-20.6,0-37.3,16.7-37.3,37.3v0C679.7,1328.2,696.4,1344.9,717,1344.9 M983.3,1379.9
	c-18.5-19.7-54.1-18.5-76.6-8.7c-38.7,19.7-54.5,60.8-52.2,103.5c1.2,35.6,15,71.9,49.4,88.1c26.1,11,60.1,9.5,82.6-9.5l1.6,11.5
	h61.6v-197.2h-64.4L983.3,1379.9L983.3,1379.9z M2111,1379.9c-18.6-19.7-54.1-18.5-76.6-8.7c-38.7,19.7-54.5,60.8-52.2,103.5
	c1.2,35.6,15,71.9,49.3,88.1c26.1,11,60.1,9.5,82.5-9.5l1.6,11.5h61.6v-197.2h-64.4L2111,1379.9L2111,1379.9z M2188.1,1367.8v56.6
	h60.2l-65.1,140.7h152.1v-53.3h-54.3l66.4-143.9H2188.1L2188.1,1367.8z"/>
<path class="st1" d="M2477.9,1375.9v50.8c0,0-23.7-11.8-51.8-8.9c0,0-21.2-0.5-21.2,12.3c0,0-2,6.9,19.7,8.9c0,0,34.1,0.5,54.3,20.7
	c0,0,15.8,16.3,13.8,40.5c0,0,1.5,36.6-32.1,55.8c0,0-29.1,19.8-74.1,13.8c0,0-40-6.4-43-10.4v-54.8c0,0,26.7,13.8,49.4,14.3
	c0,0,27.7,0.5,28.7-11.4c0,0,2.5-9.8-25.1-14.8c0,0-37.6-3.7-55-35.3c0,0-16.1-40.2,13.1-70.3c0,0,23.4-24.7,60.5-22.2
	C2415,1365,2450.2,1364.6,2477.9,1375.9 M1661.3,1416.9h67.2v64.2h-67.2V1416.9z M1462.9,1565.8v-197.2h58.7l2.5,12.3
	c0,0,19.2-16.3,39.5-17.3c0,0,25.2-4,43,7.4c0,0,27.6,11.9,31.6,51.3V1566h-63.2v-120.5c0,0-2-20.2-21.7-21.2
	c-19-1-24,5.9-25.2,21.2v120.2L1462.9,1565.8L1462.9,1565.8z M1753.6,1272.8v292.8h85.9c0,0,54.9-2.5,80-20.2
	c0,0,57.8-25.7,59.3-129.4c0,0,1-91.3-58.7-124.4c0,0-31.1-19.5-74.6-18.8L1753.6,1272.8L1753.6,1272.8z"/>
<path class="st0" d="M748.9,1428.3c0,0-29.7-1.5-29.7,40c0,0-4,39.5,30.6,39.5c0,0,28.6,1.5,28.6-40
	C778.5,1467.8,783,1429.3,748.9,1428.3 M1160.2,1425.8c0,0-29.6-1.5-29.6,40c0,0-3.9,39.5,30.6,39.5c0,0,28.6,1.5,28.6-40
	C1189.8,1465.3,1194.2,1426.8,1160.2,1425.8 M2082.5,1428.3c0,0-29.6-1.5-29.6,40c0,0-4,39.5,30.6,39.5c0,0,28.6,1.5,28.6-40
	C2112.1,1467.8,2116.6,1429.3,2082.5,1428.3 M954.8,1428.3c0,0-29.7-1.5-29.7,40c0,0-3.9,39.5,30.6,39.5c0,0,28.7,1.5,28.7-40
	C984.4,1467.8,988.9,1429.3,954.8,1428.3 M1828.7,1338.4v162.4h19.7c0,0,20.8-0.5,33.6-15.3c0,0,21.2-18.2,21.2-66.1
	c0-1.5-0.2-53.8-25.2-69.6c0,0-11.6-11.3-30.1-11.3L1828.7,1338.4L1828.7,1338.4z M1384.2,1432.7c-3.7-11.3-14-19.4-26.1-19.4
	c-15.3,0-27.6,12.8-27.6,28.6c0,3.1,0.4,6.1,1.3,8.8L1384.2,1432.7L1384.2,1432.7z"/>
<path d="M2404.4,1588.7c18.4,0,34.1,14.5,34.1,34.1s-15.8,34.3-34.1,34.3s-34.3-14.5-34.3-34.3S2385.9,1588.7,2404.4,1588.7
	 M2404.4,1594.2c-15.7,0-27.8,12.3-27.8,28.6s12.1,28.8,27.8,28.8s27.6-12.1,27.6-28.8S2419.9,1594.2,2404.4,1594.2 M2397.2,1642.7
	h-6v-39.5h14.9c9.2,0,13.8,3.5,13.8,11.3c0,7.1-4.4,10.1-10.2,10.9l11.1,17.4h-6.6l-10.4-17.2h-6.8L2397.2,1642.7L2397.2,1642.7
	L2397.2,1642.7z M2397.2,1620.5h7.1c7.3,0,9.6-2.1,9.6-6.4c0-3.8-1.8-5.9-8.6-5.9h-8.1V1620.5z"/>
<path class="st0" d="M1444.5,2071.1c16.8,0.6,24.2-25.6,22.2-45.7c-4-40.8-22-39.9-21.9-40.1c-0.2,0.4-17.1,4.9-22,40.1
	c-2.7,20,3.6,46,22.2,45.7 M1444.5,805.9c16.8-0.5,26.1,25.9,22.2,45.7c-3,15.2-11.8,41.1-21.9,40.1c-9.6,0.7-19-24.9-22-40.1
	c-3.8-19.8,3.6-46,22.2-45.7"/>
</svg>
